<?xml version="1.0" encoding="utf-8"?>
<!-- Generator: Adobe Illustrator 25.2.0, SVG Export Plug-In . SVG Version: 6.00 Build 0)  -->
<svg version="1.1" id="Layer_1" xmlns="http://www.w3.org/2000/svg" xmlns:xlink="http://www.w3.org/1999/xlink" x="0px" y="0px"
	 viewBox="0 0 2500 741" style="enable-background:new 0 0 2500 741;" xml:space="preserve">
<style type="text/css">
	.st0{fill:#A6A6A6;}
	.st1{fill:#FFFFFF;stroke:#FFFFFF;stroke-width:3.7037;stroke-miterlimit:185.1852;}
	.st2{fill:#FFFFFF;}
	.st3{fill:url(#SVGID_1_);}
	.st4{fill:url(#SVGID_2_);}
	.st5{fill:url(#SVGID_3_);}
	.st6{fill:url(#SVGID_4_);}
	.st7{opacity:0.2;enable-background:new    ;}
	.st8{opacity:0.12;enable-background:new    ;}
	.st9{opacity:0.25;fill:#FFFFFF;enable-background:new    ;}
	.st10{fill:url(#SVGID_5_);}
</style>
<path d="M2407.41,740.87H92.59C40.74,740.87,0,700.13,0,648.28V92.72C0,40.87,40.74,0.13,92.59,0.13h2314.81
	c51.85,0,92.59,40.74,92.59,92.59v555.56C2500,700.13,2459.26,740.87,2407.41,740.87z"/>
<path class="st0" d="M2407.41,14.94c42.59,0,77.78,35.19,77.78,77.78v555.56c0,42.59-35.19,77.78-77.78,77.78H92.59
	c-42.59,0-77.78-35.19-77.78-77.78V92.72c0-42.59,35.19-77.78,77.78-77.78H2407.41z M2407.41,0.13H92.59C40.74,0.13,0,42.72,0,92.72
	v555.56c0,51.85,40.74,92.59,92.59,92.59h2314.81c51.85,0,92.59-40.74,92.59-92.59V92.72C2500,42.72,2459.26,0.13,2407.41,0.13z"/>
<path class="st1" d="M877.78,189.02c0,14.81-3.7,27.78-12.96,37.04c-11.11,11.11-24.07,16.67-40.74,16.67
	c-16.67,0-29.63-5.56-40.74-16.67s-16.67-24.07-16.67-40.74s5.56-29.63,16.67-40.74s24.07-16.67,40.74-16.67
	c7.41,0,14.81,1.85,22.22,5.56c7.41,3.7,12.96,7.41,16.67,12.96l-9.26,9.26c-7.41-9.26-16.67-12.96-29.63-12.96
	c-11.11,0-22.22,3.7-29.63,12.96c-9.26,7.41-12.96,18.52-12.96,31.48c0,12.96,3.7,24.07,12.96,31.48
	c9.26,7.41,18.52,12.96,29.63,12.96c12.96,0,22.22-3.7,31.48-12.96c5.56-5.56,9.26-12.96,9.26-22.22h-40.74v-14.81h53.7
	L877.78,189.02z M962.96,142.72h-50v35.19h46.3v12.96h-46.3v35.19h50v14.81h-64.81V129.76h64.81V142.72z M1024.07,240.87h-14.81
	v-98.15h-31.48v-12.96h77.78v12.96h-31.48V240.87z M1109.26,240.87V129.76h14.81v111.11H1109.26z M1187.04,240.87h-14.81v-98.15
	h-31.48v-12.96h75.93v12.96h-31.48v98.15H1187.04z M1362.96,226.06c-11.11,11.11-24.07,16.67-40.74,16.67
	c-16.67,0-29.63-5.56-40.74-16.67s-16.67-24.07-16.67-40.74s5.56-29.63,16.67-40.74s24.07-16.67,40.74-16.67
	c16.67,0,29.63,5.56,40.74,16.67s16.67,24.07,16.67,40.74S1374.07,214.94,1362.96,226.06z M1292.59,216.8
	c7.41,7.41,18.52,12.96,29.63,12.96s22.22-3.7,29.63-12.96c7.41-7.41,12.96-18.52,12.96-31.48c0-12.96-3.7-24.07-12.96-31.48
	c-7.41-7.41-18.52-12.96-29.63-12.96s-22.22,3.7-29.63,12.96c-7.41,7.41-12.96,18.52-12.96,31.48
	C1279.63,198.28,1283.33,209.39,1292.59,216.8z M1400,240.87V129.76h16.67l53.7,87.04v-87.04h14.81v111.11h-14.81l-57.41-90.74
	v90.74H1400z"/>
<path class="st2" d="M1261.11,403.83c-44.44,0-79.63,33.33-79.63,79.63c0,44.44,35.19,79.63,79.63,79.63s79.63-33.33,79.63-79.63
	C1340.74,435.31,1305.56,403.83,1261.11,403.83z M1261.11,529.76c-24.07,0-44.44-20.37-44.44-48.15s20.37-48.15,44.44-48.15
	s44.44,18.52,44.44,48.15C1305.56,509.39,1285.19,529.76,1261.11,529.76z M1088.89,403.83c-44.44,0-79.63,33.33-79.63,79.63
	c0,44.44,35.19,79.63,79.63,79.63c44.44,0,79.63-33.33,79.63-79.63C1168.52,435.31,1133.33,403.83,1088.89,403.83z M1088.89,529.76
	c-24.07,0-44.44-20.37-44.44-48.15s20.37-48.15,44.44-48.15c24.07,0,44.44,18.52,44.44,48.15
	C1133.33,509.39,1112.96,529.76,1088.89,529.76z M883.33,427.91v33.33h79.63c-1.85,18.52-9.26,33.33-18.52,42.59
	c-11.11,11.11-29.63,24.07-61.11,24.07c-50,0-87.04-38.89-87.04-88.89s38.89-88.89,87.04-88.89c25.93,0,46.3,11.11,61.11,24.07
	l24.07-24.07c-20.37-18.52-46.3-33.33-83.33-33.33c-66.67,0-124.07,55.56-124.07,122.22s57.41,122.22,124.07,122.22
	c37.04,0,62.96-11.11,85.19-35.19c22.22-22.22,29.63-53.7,29.63-77.78c0-7.41,0-14.81-1.85-20.37L883.33,427.91z M1724.07,453.83
	c-7.41-18.52-25.93-50-66.67-50c-40.74,0-74.07,31.48-74.07,79.63c0,44.44,33.33,79.63,77.78,79.63c35.19,0,57.41-22.22,64.81-35.19
	L1700,509.39c-9.26,12.96-20.37,22.22-38.89,22.22c-18.52,0-29.63-7.41-38.89-24.07l105.56-44.44L1724.07,453.83z M1616.67,479.76
	c0-29.63,24.07-46.3,40.74-46.3c12.96,0,25.93,7.41,29.63,16.67L1616.67,479.76z M1529.63,555.69h35.19V324.2h-35.19V555.69z
	 M1474.07,420.5c-9.26-9.26-24.07-18.52-42.59-18.52c-38.89,0-75.93,35.19-75.93,79.63s35.19,77.78,75.93,77.78
	c18.52,0,33.33-9.26,40.74-18.52h1.85v11.11c0,29.63-16.67,46.3-42.59,46.3c-20.37,0-35.19-14.81-38.89-27.78l-29.63,12.96
	c9.26,20.37,31.48,46.3,70.37,46.3c40.74,0,74.07-24.07,74.07-81.48V407.54h-33.33L1474.07,420.5z M1433.33,529.76
	c-24.07,0-44.44-20.37-44.44-48.15s20.37-48.15,44.44-48.15s42.59,20.37,42.59,48.15S1457.41,529.76,1433.33,529.76z M1885.19,324.2
	h-83.33v231.48h35.19v-87.04h48.15c38.89,0,75.93-27.78,75.93-72.22S1924.07,324.2,1885.19,324.2z M1887.04,435.31h-50v-79.63h50
	c25.93,0,40.74,22.22,40.74,38.89C1925.93,414.94,1911.11,435.31,1887.04,435.31L1887.04,435.31z M2100,401.98
	c-25.93,0-51.85,11.11-61.11,35.19l31.48,12.96c7.41-12.96,18.52-16.67,31.48-16.67c18.52,0,35.19,11.11,37.04,29.63v1.85
	c-5.56-3.7-20.37-9.26-35.19-9.26c-33.33,0-66.67,18.52-66.67,51.85c0,31.48,27.78,51.85,57.41,51.85
	c24.07,0,35.19-11.11,44.44-22.22h1.85v18.52h33.33V466.8C2170.37,426.06,2138.89,401.98,2100,401.98L2100,401.98z M2096.3,529.76
	c-11.11,0-27.78-5.56-27.78-20.37c0-18.52,20.37-24.07,37.04-24.07c14.81,0,22.22,3.7,31.48,7.41
	C2133.33,514.94,2114.81,529.76,2096.3,529.76z M2290.74,407.54l-38.89,100H2250l-40.74-100h-37.04l61.11,140.74l-35.19,77.78h35.19
	l94.44-218.52H2290.74z M1979.63,555.69h35.19V324.2h-35.19V555.69z"/>
<linearGradient id="SVGID_1_" gradientUnits="userSpaceOnUse" x1="922.3873" y1="761.2952" x2="905.6043" y2="778.0771" gradientTransform="matrix(18.5185 0 0 18.5185 -16677.6289 -13936.7188)">
	<stop  offset="0" style="stop-color:#00A0FF"/>
	<stop  offset="7.000001e-03" style="stop-color:#00A1FF"/>
	<stop  offset="0.26" style="stop-color:#00BEFF"/>
	<stop  offset="0.512" style="stop-color:#00D2FF"/>
	<stop  offset="0.76" style="stop-color:#00DFFF"/>
	<stop  offset="1" style="stop-color:#00E3FF"/>
</linearGradient>
<path class="st3" d="M192.59,139.02c-5.56,5.56-7.41,14.81-7.41,25.93V574.2c0,11.11,3.7,20.37,9.26,25.93l1.85,1.85l229.63-229.63
	v-3.7L192.59,139.02z"/>
<linearGradient id="SVGID_2_" gradientUnits="userSpaceOnUse" x1="934.426" y1="772.6398" x2="910.229" y2="772.6398" gradientTransform="matrix(18.5185 0 0 18.5185 -16677.6289 -13936.7188)">
	<stop  offset="0" style="stop-color:#FFE000"/>
	<stop  offset="0.409" style="stop-color:#FFBD00"/>
	<stop  offset="0.775" style="stop-color:#FFA500"/>
	<stop  offset="1" style="stop-color:#FF9C00"/>
</linearGradient>
<path class="st4" d="M500,450.13l-75.93-75.93v-5.56L500,292.72l1.85,1.85l90.74,51.85c25.93,14.81,25.93,38.89,0,53.7L500,450.13z"
	/>
<linearGradient id="SVGID_3_" gradientUnits="userSpaceOnUse" x1="925.4075" y1="774.8743" x2="902.6495" y2="797.6323" gradientTransform="matrix(18.5185 0 0 18.5185 -16677.6289 -13936.7188)">
	<stop  offset="0" style="stop-color:#FF3A44"/>
	<stop  offset="1" style="stop-color:#C31162"/>
</linearGradient>
<path class="st5" d="M501.85,448.28l-77.78-77.78L192.59,601.98c9.26,9.26,22.22,9.26,38.89,1.85L501.85,448.28z"/>
<linearGradient id="SVGID_4_" gradientUnits="userSpaceOnUse" x1="907.8535" y1="752.8013" x2="918.0165" y2="762.9644" gradientTransform="matrix(18.5185 0 0 18.5185 -16677.6289 -13936.7188)">
	<stop  offset="0" style="stop-color:#32A071"/>
	<stop  offset="0.069" style="stop-color:#2DA771"/>
	<stop  offset="0.476" style="stop-color:#15CF74"/>
	<stop  offset="0.801" style="stop-color:#06E775"/>
	<stop  offset="1" style="stop-color:#00F076"/>
</linearGradient>
<path class="st6" d="M501.85,292.72l-270.37-153.7c-16.67-9.26-29.63-7.41-38.89,1.85L424.07,370.5L501.85,292.72z"/>
<path class="st7" d="M500,446.43L231.48,598.28c-14.81,9.26-27.78,7.41-37.04,0l-1.85,1.85l1.85,1.85c9.26,7.41,22.22,9.26,37.04,0
	L500,446.43z"/>
<path class="st8" d="M192.59,598.28c-5.56-5.56-7.41-14.81-7.41-25.93v1.85c0,11.11,3.7,20.37,9.26,25.93v-1.85L192.59,598.28z
	 M592.59,394.57L500,446.43l1.85,1.85l90.74-51.85c12.96-7.41,18.52-16.67,18.52-25.93C611.11,379.76,603.7,387.17,592.59,394.57z"
	/>
<path class="st9" d="M231.48,140.87l361.11,205.56c11.11,7.41,18.52,14.81,18.52,24.07c0-9.26-5.56-18.52-18.52-25.93L231.48,139.02
	c-25.93-14.81-46.3-3.7-46.3,25.93v1.85C185.19,139.02,205.56,126.06,231.48,140.87z"/>
<linearGradient id="SVGID_5_" gradientUnits="userSpaceOnUse" x1="310.5921" y1="-872.237" x2="310.5921" y2="-836.191" gradientTransform="matrix(18.5285 0 0 -18.5285 -3921.8787 -15417.2969)">
	<stop  offset="0" style="stop-color:#1A1A1A;stop-opacity:0.1"/>
	<stop  offset="0.123" style="stop-color:#212121;stop-opacity:0.151"/>
	<stop  offset="0.308" style="stop-color:#353535;stop-opacity:0.227"/>
	<stop  offset="0.532" style="stop-color:#575757;stop-opacity:0.318"/>
	<stop  offset="0.783" style="stop-color:#858585;stop-opacity:0.421"/>
	<stop  offset="1" style="stop-color:#B3B3B3;stop-opacity:0.51"/>
</linearGradient>
<path class="st10" d="M2411.73,1.02H1166.52l487.73,740.94h757.48c48.25,0,87.62-39.22,87.62-87.53V88.58
	C2499.37,40.3,2460,1.02,2411.73,1.02z"/>
</svg>
