<?xml version="1.0" encoding="utf-8"?>
<!-- Generator: Adobe Illustrator 25.2.0, SVG Export Plug-In . SVG Version: 6.00 Build 0)  -->
<svg version="1.1" xmlns="http://www.w3.org/2000/svg" xmlns:xlink="http://www.w3.org/1999/xlink" x="0px" y="0px"
	 viewBox="0 0 546.76 146.01" style="enable-background:new 0 0 546.76 146.01;" xml:space="preserve">
<style type="text/css">
	.st0{fill:#EAEAEA;}
	.st1{fill:#2CC5F3;}
	.st2{clip-path:url(#SVGID_2_);}
	.st3{clip-path:url(#SVGID_6_);}
	.st4{fill:#FFFFFF;stroke:#F8B817;stroke-width:4;stroke-miterlimit:10;}
	.st5{fill:#22C3F3;}
	.st6{fill:#DCA174;}
	.st7{fill:#8F715D;}
	.st8{fill:#FFFFFF;}
	.st9{fill:#C7C5C4;}
	.st10{fill:#E1E3E4;}
	.st11{fill:#F8FCFF;}
	.st12{fill:none;stroke:#48C4EE;stroke-width:2;stroke-linecap:round;stroke-miterlimit:10;}
	.st13{fill:none;stroke:#48C4EE;stroke-width:3;stroke-linecap:round;stroke-miterlimit:10;}
	.st14{fill:#3D3F3D;}
	.st15{fill:#373531;}
	.st16{fill:none;stroke:#373531;stroke-linecap:round;stroke-miterlimit:10;}
	.st17{fill:#DD3D45;}
	.st18{fill:#2D75BC;}
	.st19{fill:#E0E0D1;}
	.st20{fill:#BC3945;}
	.st21{fill:#266292;}
	.st22{fill:#F8BB4A;}
	.st23{fill:#88CEE9;}
	.st24{fill:#E03E46;}
	.st25{fill:#9A3040;}
	.st26{fill:#66352F;}
	.st27{fill:#3B3B3A;}
	.st28{fill:#F9B917;}
	.st29{fill:#6198D0;}
	.st30{fill:url(#SVGID_15_);}
	.st31{fill:url(#SVGID_16_);}
	.st32{fill:url(#SVGID_17_);}
	.st33{fill:#07231F;}
	.st34{fill:#061E1B;}
	.st35{fill:#1F8C82;}
	.st36{fill:#33BDB2;}
	.st37{fill:#38A4DD;}
	.st38{clip-path:url(#SVGID_19_);}
	.st39{clip-path:url(#SVGID_21_);}
	.st40{clip-path:url(#SVGID_23_);}
	.st41{clip-path:url(#SVGID_25_);}
	.st42{clip-path:url(#SVGID_29_);}
	.st43{clip-path:url(#SVGID_33_);fill:#F4F5F7;}
	.st44{clip-path:url(#SVGID_33_);fill:#FFFFFF;}
	.st45{clip-path:url(#SVGID_33_);fill:url(#SVGID_34_);}
	.st46{clip-path:url(#SVGID_33_);fill:none;stroke:#FFFFFF;stroke-width:0.6495;stroke-miterlimit:10;}
	.st47{clip-path:url(#SVGID_33_);}
	.st48{fill:url(#SVGID_35_);}
	.st49{fill:url(#SVGID_36_);}
	.st50{fill:url(#SVGID_37_);}
	.st51{fill:url(#SVGID_38_);}
	.st52{fill:url(#SVGID_39_);}
	.st53{fill:url(#SVGID_40_);}
	.st54{fill:url(#SVGID_41_);}
	.st55{fill:url(#SVGID_42_);}
	.st56{fill:url(#SVGID_43_);}
	.st57{fill:url(#SVGID_44_);}
	.st58{fill:url(#SVGID_45_);}
	.st59{fill:url(#SVGID_46_);}
	.st60{fill:url(#SVGID_47_);}
	.st61{fill:url(#SVGID_48_);}
	.st62{fill:url(#SVGID_49_);}
	.st63{fill:url(#SVGID_50_);}
	.st64{fill:url(#SVGID_51_);}
	.st65{fill:url(#SVGID_52_);}
	.st66{fill:url(#SVGID_53_);}
	.st67{fill:url(#SVGID_54_);}
	.st68{fill:url(#SVGID_55_);}
	.st69{fill:url(#SVGID_56_);}
	.st70{fill:url(#SVGID_57_);}
	.st71{fill:url(#SVGID_58_);}
	.st72{fill:url(#SVGID_59_);}
	.st73{fill:url(#SVGID_60_);}
	.st74{fill:url(#SVGID_61_);}
	.st75{fill:url(#SVGID_62_);}
	.st76{fill:url(#SVGID_63_);}
	.st77{fill:url(#SVGID_64_);}
	.st78{fill:url(#SVGID_65_);}
	.st79{fill:url(#SVGID_66_);}
	.st80{clip-path:url(#SVGID_33_);fill:url(#SVGID_67_);}
	.st81{fill:url(#SVGID_68_);}
	.st82{fill:url(#SVGID_69_);}
	.st83{fill:url(#SVGID_70_);}
	.st84{fill:url(#SVGID_71_);}
	.st85{fill:url(#SVGID_72_);}
	.st86{fill:url(#SVGID_73_);}
	.st87{fill:url(#SVGID_74_);}
	.st88{fill:url(#SVGID_75_);}
	.st89{fill:url(#SVGID_76_);}
	.st90{clip-path:url(#SVGID_33_);fill:none;stroke:#D0D1D2;stroke-width:1.2991;stroke-miterlimit:10;}
	.st91{clip-path:url(#SVGID_80_);}
	.st92{clip-path:url(#SVGID_82_);}
	.st93{clip-path:url(#SVGID_86_);}
	.st94{clip-path:url(#SVGID_90_);fill:#F4F5F7;}
	.st95{clip-path:url(#SVGID_90_);fill:#FFFFFF;}
	.st96{clip-path:url(#SVGID_90_);fill:url(#SVGID_91_);}
	.st97{clip-path:url(#SVGID_90_);fill:none;stroke:#FFFFFF;stroke-width:0.6498;stroke-miterlimit:10;}
	.st98{clip-path:url(#SVGID_90_);}
	.st99{fill:url(#SVGID_92_);}
	.st100{fill:url(#SVGID_93_);}
	.st101{fill:url(#SVGID_94_);}
	.st102{fill:url(#SVGID_95_);}
	.st103{fill:url(#SVGID_96_);}
	.st104{fill:url(#SVGID_97_);}
	.st105{fill:url(#SVGID_98_);}
	.st106{fill:url(#SVGID_99_);}
	.st107{fill:url(#SVGID_100_);}
	.st108{fill:url(#SVGID_101_);}
	.st109{fill:url(#SVGID_102_);}
	.st110{fill:url(#SVGID_103_);}
	.st111{fill:url(#SVGID_104_);}
	.st112{fill:url(#SVGID_105_);}
	.st113{fill:url(#SVGID_106_);}
	.st114{fill:url(#SVGID_107_);}
	.st115{fill:url(#SVGID_108_);}
	.st116{fill:url(#SVGID_109_);}
	.st117{fill:url(#SVGID_110_);}
	.st118{fill:url(#SVGID_111_);}
	.st119{fill:url(#SVGID_112_);}
	.st120{fill:url(#SVGID_113_);}
	.st121{fill:url(#SVGID_114_);}
	.st122{fill:url(#SVGID_115_);}
	.st123{fill:url(#SVGID_116_);}
	.st124{fill:url(#SVGID_117_);}
	.st125{fill:url(#SVGID_118_);}
	.st126{fill:url(#SVGID_119_);}
	.st127{fill:url(#SVGID_120_);}
	.st128{fill:url(#SVGID_121_);}
	.st129{fill:url(#SVGID_122_);}
	.st130{fill:url(#SVGID_123_);}
	.st131{clip-path:url(#SVGID_90_);fill:url(#SVGID_124_);}
	.st132{fill:url(#SVGID_125_);}
	.st133{fill:url(#SVGID_126_);}
	.st134{fill:url(#SVGID_127_);}
	.st135{fill:url(#SVGID_128_);}
	.st136{fill:url(#SVGID_129_);}
	.st137{fill:url(#SVGID_130_);}
	.st138{fill:url(#SVGID_131_);}
	.st139{fill:url(#SVGID_132_);}
	.st140{fill:url(#SVGID_133_);}
	.st141{clip-path:url(#SVGID_90_);fill:none;stroke:#D0D1D2;stroke-width:1.2997;stroke-miterlimit:10;}
	.st142{clip-path:url(#SVGID_21_);fill-rule:evenodd;clip-rule:evenodd;fill:none;}
	.st143{fill:#10AACC;}
	.st144{fill:#22C3F3;stroke:#FFFFFF;stroke-width:2.2465;stroke-miterlimit:10;}
	.st145{opacity:0.5;fill:#B0B0B0;}
	.st146{fill:#3A3B3A;}
	.st147{fill:#997152;}
	.st148{fill:#C2C3C3;}
	.st149{fill:#61CAEF;}
	.st150{fill:#876B56;}
	.st151{fill:#313131;}
	.st152{fill:#C38960;}
	.st153{clip-path:url(#SVGID_137_);}
	.st154{clip-path:url(#SVGID_139_);}
	.st155{fill:#FBB423;}
	.st156{fill:#272A2C;}
	.st157{fill:#F9DCAB;}
	.st158{fill:#5E77A1;}
	.st159{fill:#E9ECF7;}
	.st160{fill:#DCA074;}
	.st161{fill:#996F51;}
	.st162{fill:#C3C4C4;}
	.st163{fill:#3A3A3A;}
	.st164{fill:#5ECBEF;}
	.st165{opacity:0.3;fill:#515251;}
	.st166{fill:url(#SVGID_142_);}
	.st167{fill:url(#SVGID_143_);}
	.st168{fill:url(#SVGID_144_);}
	.st169{fill:url(#SVGID_145_);}
	.st170{fill:url(#SVGID_146_);}
	.st171{fill:url(#SVGID_147_);}
	.st172{fill:url(#SVGID_148_);}
	.st173{fill:url(#SVGID_149_);}
	.st174{fill:url(#SVGID_150_);}
	.st175{fill:url(#SVGID_151_);}
	.st176{fill:url(#SVGID_152_);}
	.st177{fill:url(#SVGID_153_);}
	.st178{fill:url(#SVGID_154_);}
	.st179{fill:#31C4F2;}
	.st180{opacity:0.34;fill:#515251;}
	.st181{clip-path:url(#SVGID_156_);fill:#FFFFFF;}
	.st182{clip-path:url(#SVGID_156_);}
	.st183{opacity:0.3;clip-path:url(#SVGID_156_);fill:#515251;}
	.st184{fill:#876A56;}
	.st185{fill:#BB8A69;}
	.st186{fill:#C1C1C1;}
	.st187{fill:#977152;}
	.st188{fill:#DA9F75;}
	.st189{fill:none;stroke:#5FC8ED;stroke-width:3;stroke-miterlimit:10;}
	.st190{fill:none;stroke:#5FC8ED;stroke-width:5;stroke-miterlimit:10;}
	.st191{opacity:0.3;fill:#525353;}
	.st192{fill:none;}
	.st193{fill:#DBA075;}
	.st194{fill:#856B56;}
	.st195{fill:#B98769;}
	.st196{fill:#896C57;}
	.st197{fill:#B68560;}
	.st198{fill:#323131;}
	.st199{fill:#B68460;}
	.st200{fill:#18224E;}
	.st201{fill:#F89A2E;}
	.st202{fill:#F05551;}
	.st203{fill:none;stroke:#FEF8FB;stroke-width:5;stroke-linecap:round;stroke-miterlimit:10;stroke-dasharray:10.0572,10.0572;}
	.st204{fill:#FEF8FB;}
	.st205{fill-rule:evenodd;clip-rule:evenodd;fill:#FEF8FB;}
	.st206{fill:none;stroke:#18224E;stroke-width:5;stroke-miterlimit:10;}
	.st207{fill:none;stroke:#18224E;stroke-miterlimit:10;}
	.st208{fill:none;stroke:#FEF8FB;stroke-width:3;stroke-miterlimit:10;}
	.st209{fill:none;stroke:#F05551;stroke-width:3;stroke-miterlimit:10;}
	.st210{fill:none;stroke:#F89A2E;stroke-width:3;stroke-miterlimit:10;}
	.st211{fill:none;stroke:#18224E;stroke-width:3;stroke-miterlimit:10;}
	.st212{fill:#FAB915;}
	.st213{fill-rule:evenodd;clip-rule:evenodd;fill:#776EB2;}
	.st214{opacity:0.3;}
	.st215{clip-path:url(#SVGID_158_);}
	.st216{clip-path:url(#SVGID_160_);}
	.st217{fill:#6290CB;}
	.st218{fill:#5DB547;}
	.st219{fill:#7BA5D7;}
	.st220{fill:url(#SVGID_163_);}
	.st221{fill:#79797A;}
	.st222{fill:#D7E9F8;}
	.st223{fill:#3BC6F4;}
	.st224{fill:#F7F8F8;}
	.st225{fill:url(#SVGID_164_);}
	.st226{opacity:0.94;fill-rule:evenodd;clip-rule:evenodd;fill:#0078C0;}
	.st227{fill-rule:evenodd;clip-rule:evenodd;fill:#0099DB;}
	.st228{fill-rule:evenodd;clip-rule:evenodd;fill:#0078C0;}
	.st229{fill-rule:evenodd;clip-rule:evenodd;fill:#0084C3;}
	.st230{opacity:0.81;}
	.st231{fill:url(#SVGID_171_);}
	.st232{fill:none;stroke:#FAB915;stroke-width:6;stroke-miterlimit:10;}
	.st233{fill:url(#SVGID_172_);}
	.st234{fill:url(#SVGID_173_);}
	.st235{fill:url(#SVGID_174_);}
	.st236{fill:url(#SVGID_175_);}
	.st237{fill:url(#SVGID_176_);}
	.st238{fill:url(#SVGID_177_);}
	.st239{fill:url(#SVGID_178_);}
	.st240{fill:url(#SVGID_179_);}
	.st241{fill:url(#SVGID_180_);}
	.st242{fill:url(#SVGID_181_);}
	.st243{fill:url(#SVGID_182_);}
	.st244{fill:url(#SVGID_183_);}
	.st245{fill:url(#SVGID_184_);}
	.st246{fill:url(#SVGID_185_);}
	.st247{fill:url(#SVGID_186_);}
	.st248{fill:url(#SVGID_187_);}
	.st249{fill:url(#SVGID_188_);}
	.st250{fill:url(#SVGID_189_);}
	.st251{fill:url(#SVGID_190_);}
	.st252{fill:url(#SVGID_191_);}
	.st253{fill:url(#SVGID_192_);}
	.st254{fill:url(#SVGID_193_);}
	.st255{fill:url(#SVGID_194_);}
	.st256{fill:url(#SVGID_195_);}
	.st257{fill:#35C4F1;}
	.st258{fill:#DCA176;}
	.st259{fill:url(#SVGID_196_);}
	.st260{fill:url(#SVGID_197_);}
	.st261{fill:url(#SVGID_198_);}
	.st262{fill:#404040;}
	.st263{fill:url(#SVGID_199_);}
	.st264{fill:url(#SVGID_200_);}
	.st265{fill:none;stroke:#7C5523;stroke-width:0.25;stroke-linecap:round;stroke-miterlimit:10;stroke-dasharray:2.0311,3.0466;}
	.st266{fill:#130F0D;}
	.st267{fill:#886B58;}
	.st268{fill:url(#SVGID_201_);}
	.st269{fill:url(#SVGID_202_);}
	.st270{fill:#BD4F5F;}
	.st271{opacity:0.69;fill:url(#SVGID_203_);}
	.st272{opacity:0.69;fill:url(#SVGID_204_);}
	.st273{fill:url(#SVGID_205_);}
	.st274{fill:#FBC9A2;}
	.st275{fill:#9C6D37;}
	.st276{fill:url(#SVGID_206_);}
	.st277{fill:url(#SVGID_207_);}
	.st278{fill:url(#SVGID_208_);}
	.st279{fill:url(#SVGID_209_);}
	.st280{fill:url(#SVGID_210_);}
	.st281{fill:url(#SVGID_211_);}
	.st282{fill:url(#SVGID_212_);}
	.st283{fill:url(#SVGID_213_);}
	.st284{fill:url(#SVGID_214_);}
	.st285{fill:url(#SVGID_215_);}
	.st286{fill:url(#SVGID_216_);}
	.st287{fill:url(#SVGID_217_);}
	.st288{fill:url(#SVGID_218_);}
	.st289{fill:url(#SVGID_219_);}
	.st290{fill:url(#SVGID_220_);}
	.st291{fill:url(#SVGID_221_);}
	.st292{fill:url(#SVGID_222_);}
	.st293{fill:#010101;}
	.st294{clip-path:url(#SVGID_224_);fill:#1A1A23;}
	.st295{clip-path:url(#SVGID_224_);fill:#1B1B24;}
	.st296{clip-path:url(#SVGID_224_);fill:#1B1B25;}
	.st297{clip-path:url(#SVGID_224_);fill:#1C1C27;}
	.st298{clip-path:url(#SVGID_224_);fill:#1D1D29;}
	.st299{clip-path:url(#SVGID_224_);fill:#1E1E2A;}
	.st300{clip-path:url(#SVGID_224_);fill:#1F1E2C;}
	.st301{clip-path:url(#SVGID_224_);fill:#1F1F2D;}
	.st302{clip-path:url(#SVGID_224_);fill:#201F2D;}
	.st303{clip-path:url(#SVGID_224_);fill:#20202E;}
	.st304{clip-path:url(#SVGID_224_);fill:#222030;}
	.st305{clip-path:url(#SVGID_224_);fill:#222131;}
	.st306{clip-path:url(#SVGID_224_);fill:#232132;}
	.st307{clip-path:url(#SVGID_224_);fill:#232233;}
	.st308{clip-path:url(#SVGID_224_);fill:#242234;}
	.st309{clip-path:url(#SVGID_224_);fill:#252335;}
	.st310{clip-path:url(#SVGID_224_);fill:#252336;}
	.st311{clip-path:url(#SVGID_224_);fill:#252437;}
	.st312{clip-path:url(#SVGID_224_);fill:#252438;}
	.st313{clip-path:url(#SVGID_224_);fill:#272639;}
	.st314{clip-path:url(#SVGID_224_);fill:#26253A;}
	.st315{clip-path:url(#SVGID_224_);fill:#27263B;}
	.st316{clip-path:url(#SVGID_224_);fill:#28263C;}
	.st317{clip-path:url(#SVGID_224_);fill:#28273D;}
	.st318{clip-path:url(#SVGID_224_);fill:#191921;}
	.st319{fill:url(#SVGID_225_);}
	.st320{fill:url(#SVGID_226_);}
	.st321{fill:#151317;}
	.st322{fill:#2F2D34;}
	.st323{fill:url(#SVGID_227_);}
	.st324{fill:url(#SVGID_228_);}
	.st325{fill:#A883B4;}
	.st326{fill:none;stroke:#A883B4;stroke-miterlimit:10;}
	.st327{fill:url(#SVGID_229_);}
	.st328{fill:url(#SVGID_230_);}
	.st329{fill:#EFE1CB;}
	.st330{fill:url(#SVGID_231_);}
	.st331{fill:#2E2E2E;}
	.st332{fill:#454545;}
	.st333{fill:url(#SVGID_232_);}
	.st334{fill:url(#SVGID_233_);}
	.st335{fill:#CCC0B0;}
	.st336{fill:#412E30;}
	.st337{fill:#4C3D40;}
	.st338{fill:#362628;}
	.st339{fill:#A2374A;}
	.st340{fill:#5F1721;}
	.st341{fill:#731F31;}
	.st342{fill:#6D2534;}
	.st343{fill:#F6B818;}
	.st344{opacity:0.34;}
	.st345{fill:#D48ABB;}
	.st346{fill:#B43991;}
	.st347{fill:#EE2B48;}
	.st348{fill:#AF1E37;}
	.st349{fill:#760F2B;}
	.st350{fill:#A4A4A5;}
	.st351{fill:#E4E4E4;}
	.st352{fill:#C4B0A9;}
	.st353{fill:#8D7F79;}
	.st354{fill:#C0C0C0;}
	.st355{fill:none;stroke:#61C7EC;stroke-width:3;stroke-miterlimit:10;}
	.st356{fill:none;stroke:#61C7EC;stroke-width:5;stroke-miterlimit:10;}
	.st357{opacity:0.3;fill:#525453;}
	.st358{fill:#846B57;}
	.st359{fill:#C9C7C7;}
	.st360{fill:#FDB734;}
	.st361{fill:#D37029;}
	.st362{fill:none;stroke:#C9C7C7;stroke-miterlimit:10;}
	.st363{opacity:0.21;}
	.st364{fill:url(#SVGID_234_);}
	.st365{fill:#DDAA87;}
	.st366{opacity:0.27;clip-path:url(#SVGID_236_);}
	.st367{fill:url(#SVGID_237_);}
	.st368{clip-path:url(#SVGID_239_);}
	.st369{clip-path:url(#SVGID_243_);}
	.st370{clip-path:url(#SVGID_247_);}
	.st371{clip-path:url(#SVGID_251_);}
	.st372{clip-path:url(#SVGID_257_);}
	.st373{clip-path:url(#SVGID_261_);}
	.st374{clip-path:url(#SVGID_265_);}
	.st375{fill:#D1CDC2;}
	.st376{fill:#C5C6B8;}
	.st377{fill:#AAA494;}
	.st378{fill:#FCB139;}
	.st379{clip-path:url(#SVGID_269_);}
	.st380{clip-path:url(#SVGID_283_);}
	.st381{clip-path:url(#SVGID_287_);}
	.st382{clip-path:url(#SVGID_291_);}
	.st383{clip-path:url(#SVGID_295_);}
	.st384{clip-path:url(#SVGID_299_);}
	.st385{clip-path:url(#SVGID_303_);}
	.st386{clip-path:url(#SVGID_311_);}
	.st387{clip-path:url(#SVGID_315_);}
	.st388{clip-path:url(#SVGID_319_);}
	.st389{clip-path:url(#SVGID_335_);}
	.st390{clip-path:url(#SVGID_339_);}
	.st391{clip-path:url(#SVGID_343_);}
	.st392{clip-path:url(#SVGID_353_);}
	.st393{clip-path:url(#SVGID_369_);}
	.st394{fill:#9A6A3C;}
	.st395{fill:#523328;}
	.st396{fill:#D2444D;}
	.st397{clip-path:url(#SVGID_377_);}
	.st398{clip-path:url(#SVGID_383_);}
	.st399{clip-path:url(#SVGID_387_);}
	.st400{clip-path:url(#SVGID_391_);}
	.st401{clip-path:url(#SVGID_395_);}
	.st402{clip-path:url(#SVGID_399_);}
	.st403{clip-path:url(#SVGID_403_);}
	.st404{clip-path:url(#SVGID_411_);}
	.st405{clip-path:url(#SVGID_415_);}
	.st406{clip-path:url(#SVGID_419_);}
	.st407{clip-path:url(#SVGID_435_);}
	.st408{clip-path:url(#SVGID_443_);}
	.st409{clip-path:url(#SVGID_449_);}
	.st410{clip-path:url(#SVGID_465_);}
	.st411{fill:#62210C;}
	.st412{fill:#3B130E;}
	.st413{clip-path:url(#SVGID_473_);}
	.st414{clip-path:url(#SVGID_477_);}
	.st415{clip-path:url(#SVGID_481_);}
	.st416{clip-path:url(#SVGID_485_);}
	.st417{fill:#BEBEC9;}
	.st418{clip-path:url(#SVGID_489_);}
	.st419{clip-path:url(#SVGID_493_);}
	.st420{clip-path:url(#SVGID_497_);}
	.st421{clip-path:url(#SVGID_501_);}
	.st422{fill:#E4E4E9;}
	.st423{fill:#BDA2B2;}
	.st424{fill:#CCB1BF;}
	.st425{clip-path:url(#SVGID_505_);}
	.st426{clip-path:url(#SVGID_509_);}
	.st427{clip-path:url(#SVGID_513_);}
	.st428{fill:#E56370;}
	.st429{clip-path:url(#SVGID_517_);}
	.st430{clip-path:url(#SVGID_521_);}
	.st431{fill:#872A3E;}
	.st432{clip-path:url(#SVGID_525_);}
	.st433{fill:#943E5B;}
	.st434{clip-path:url(#SVGID_529_);}
	.st435{clip-path:url(#SVGID_533_);}
	.st436{clip-path:url(#SVGID_537_);}
	.st437{fill:#561A32;}
	.st438{clip-path:url(#SVGID_541_);}
	.st439{fill:#F4BFC3;}
	.st440{clip-path:url(#SVGID_545_);}
	.st441{fill:#CDA7B0;}
	.st442{clip-path:url(#SVGID_549_);}
	.st443{clip-path:url(#SVGID_553_);}
	.st444{fill:#D3AFBB;}
	.st445{clip-path:url(#SVGID_557_);}
	.st446{clip-path:url(#SVGID_561_);}
	.st447{fill:#B9A1AB;}
	.st448{clip-path:url(#SVGID_565_);}
	.st449{clip-path:url(#SVGID_569_);}
	.st450{clip-path:url(#SVGID_573_);}
	.st451{clip-path:url(#SVGID_577_);}
	.st452{clip-path:url(#SVGID_581_);}
	.st453{clip-path:url(#SVGID_585_);}
	.st454{clip-path:url(#SVGID_591_);}
	.st455{clip-path:url(#SVGID_595_);}
	.st456{clip-path:url(#SVGID_601_);}
	.st457{clip-path:url(#SVGID_607_);}
	.st458{clip-path:url(#SVGID_613_);}
	.st459{clip-path:url(#SVGID_619_);}
	.st460{clip-path:url(#SVGID_625_);}
	.st461{clip-path:url(#SVGID_631_);}
	.st462{clip-path:url(#SVGID_637_);}
	.st463{clip-path:url(#SVGID_643_);}
	.st464{clip-path:url(#SVGID_647_);}
	.st465{clip-path:url(#SVGID_651_);}
	.st466{clip-path:url(#SVGID_655_);}
	.st467{clip-path:url(#SVGID_659_);}
	.st468{clip-path:url(#SVGID_663_);}
	.st469{clip-path:url(#SVGID_667_);}
	.st470{clip-path:url(#SVGID_671_);}
	.st471{clip-path:url(#SVGID_675_);}
	.st472{clip-path:url(#SVGID_679_);}
	.st473{clip-path:url(#SVGID_683_);}
	.st474{clip-path:url(#SVGID_687_);}
	.st475{clip-path:url(#SVGID_691_);}
	.st476{clip-path:url(#SVGID_695_);}
	.st477{clip-path:url(#SVGID_699_);}
	.st478{clip-path:url(#SVGID_703_);}
	.st479{clip-path:url(#SVGID_707_);}
	.st480{clip-path:url(#SVGID_711_);}
	.st481{clip-path:url(#SVGID_715_);}
	.st482{clip-path:url(#SVGID_719_);}
	.st483{clip-path:url(#SVGID_723_);}
	.st484{clip-path:url(#SVGID_727_);}
	.st485{clip-path:url(#SVGID_731_);}
	.st486{clip-path:url(#SVGID_735_);}
	.st487{clip-path:url(#SVGID_739_);}
	.st488{clip-path:url(#SVGID_743_);}
	.st489{clip-path:url(#SVGID_747_);}
	.st490{clip-path:url(#SVGID_751_);}
	.st491{clip-path:url(#SVGID_757_);}
	.st492{clip-path:url(#SVGID_761_);}
	.st493{clip-path:url(#SVGID_767_);}
	.st494{clip-path:url(#SVGID_771_);}
	.st495{clip-path:url(#SVGID_777_);}
	.st496{clip-path:url(#SVGID_781_);}
	.st497{clip-path:url(#SVGID_787_);}
	.st498{clip-path:url(#SVGID_791_);}
	.st499{clip-path:url(#SVGID_795_);}
	.st500{clip-path:url(#SVGID_799_);}
	.st501{clip-path:url(#SVGID_803_);}
	.st502{clip-path:url(#SVGID_807_);}
	.st503{clip-path:url(#SVGID_811_);}
	.st504{clip-path:url(#SVGID_815_);}
	.st505{clip-path:url(#SVGID_819_);}
	.st506{clip-path:url(#SVGID_823_);}
	.st507{clip-path:url(#SVGID_827_);}
	.st508{clip-path:url(#SVGID_831_);}
	.st509{clip-path:url(#SVGID_835_);}
	.st510{clip-path:url(#SVGID_839_);}
	.st511{clip-path:url(#SVGID_843_);}
	.st512{clip-path:url(#SVGID_847_);}
	.st513{clip-path:url(#SVGID_851_);}
	.st514{clip-path:url(#SVGID_855_);}
	.st515{clip-path:url(#SVGID_859_);}
	.st516{clip-path:url(#SVGID_863_);}
	.st517{clip-path:url(#SVGID_867_);}
	.st518{clip-path:url(#SVGID_871_);}
	.st519{clip-path:url(#SVGID_875_);}
	.st520{clip-path:url(#SVGID_879_);}
	.st521{clip-path:url(#SVGID_883_);}
	.st522{clip-path:url(#SVGID_887_);}
	.st523{clip-path:url(#SVGID_891_);}
	.st524{clip-path:url(#SVGID_895_);}
	.st525{clip-path:url(#SVGID_899_);}
	.st526{clip-path:url(#SVGID_903_);}
	.st527{clip-path:url(#SVGID_907_);}
	.st528{clip-path:url(#SVGID_911_);}
	.st529{clip-path:url(#SVGID_915_);}
	.st530{clip-path:url(#SVGID_919_);}
	.st531{clip-path:url(#SVGID_923_);}
	.st532{clip-path:url(#SVGID_927_);}
	.st533{clip-path:url(#SVGID_931_);}
	.st534{clip-path:url(#SVGID_935_);}
	.st535{clip-path:url(#SVGID_939_);}
	.st536{clip-path:url(#SVGID_943_);}
	.st537{clip-path:url(#SVGID_947_);}
	.st538{clip-path:url(#SVGID_951_);}
	.st539{clip-path:url(#SVGID_955_);}
	.st540{clip-path:url(#SVGID_959_);}
	.st541{clip-path:url(#SVGID_963_);}
	.st542{clip-path:url(#SVGID_967_);}
	.st543{clip-path:url(#SVGID_971_);}
	.st544{clip-path:url(#SVGID_975_);}
	.st545{clip-path:url(#SVGID_979_);}
	.st546{clip-path:url(#SVGID_983_);}
	.st547{clip-path:url(#SVGID_987_);}
	.st548{clip-path:url(#SVGID_991_);}
	.st549{clip-path:url(#SVGID_995_);}
	.st550{clip-path:url(#SVGID_999_);}
	.st551{clip-path:url(#SVGID_1003_);}
	.st552{clip-path:url(#SVGID_1007_);}
	.st553{clip-path:url(#SVGID_1011_);}
	.st554{clip-path:url(#SVGID_1015_);}
	.st555{clip-path:url(#SVGID_1019_);}
	.st556{clip-path:url(#SVGID_1023_);}
	.st557{clip-path:url(#SVGID_1027_);}
	.st558{clip-path:url(#SVGID_1031_);}
	.st559{clip-path:url(#SVGID_1035_);}
	.st560{clip-path:url(#SVGID_1039_);}
	.st561{clip-path:url(#SVGID_1043_);}
	.st562{clip-path:url(#SVGID_1047_);}
	.st563{clip-path:url(#SVGID_1051_);}
	.st564{clip-path:url(#SVGID_1055_);}
	.st565{clip-path:url(#SVGID_1059_);}
	.st566{clip-path:url(#SVGID_1063_);}
	.st567{clip-path:url(#SVGID_1067_);}
	.st568{clip-path:url(#SVGID_1071_);}
	.st569{clip-path:url(#SVGID_1075_);}
	.st570{clip-path:url(#SVGID_1081_);}
	.st571{clip-path:url(#SVGID_1087_);}
	.st572{clip-path:url(#SVGID_1093_);}
	.st573{clip-path:url(#SVGID_1099_);}
	.st574{clip-path:url(#SVGID_1105_);}
	.st575{clip-path:url(#SVGID_1111_);}
	.st576{clip-path:url(#SVGID_1117_);}
	.st577{clip-path:url(#SVGID_1123_);}
	.st578{clip-path:url(#SVGID_1127_);}
	.st579{clip-path:url(#SVGID_1131_);}
	.st580{clip-path:url(#SVGID_1135_);}
	.st581{clip-path:url(#SVGID_1139_);}
	.st582{clip-path:url(#SVGID_1143_);}
	.st583{clip-path:url(#SVGID_1147_);}
	.st584{clip-path:url(#SVGID_1151_);}
	.st585{clip-path:url(#SVGID_1155_);}
	.st586{clip-path:url(#SVGID_1159_);}
	.st587{clip-path:url(#SVGID_1163_);}
	.st588{clip-path:url(#SVGID_1167_);}
	.st589{clip-path:url(#SVGID_1171_);}
	.st590{clip-path:url(#SVGID_1175_);}
	.st591{clip-path:url(#SVGID_1179_);}
	.st592{clip-path:url(#SVGID_1183_);}
	.st593{clip-path:url(#SVGID_1187_);}
	.st594{clip-path:url(#SVGID_1191_);}
	.st595{clip-path:url(#SVGID_1195_);}
	.st596{clip-path:url(#SVGID_1199_);}
	.st597{clip-path:url(#SVGID_1203_);}
	.st598{clip-path:url(#SVGID_1207_);}
	.st599{clip-path:url(#SVGID_1211_);}
	.st600{clip-path:url(#SVGID_1215_);}
	.st601{clip-path:url(#SVGID_1219_);}
	.st602{clip-path:url(#SVGID_1223_);}
	.st603{clip-path:url(#SVGID_1227_);}
	.st604{clip-path:url(#SVGID_1231_);}
	.st605{fill:#BDD741;}
	.st606{clip-path:url(#SVGID_1241_);}
	.st607{clip-path:url(#SVGID_1247_);}
	.st608{clip-path:url(#SVGID_1251_);}
	.st609{clip-path:url(#SVGID_1255_);}
	.st610{clip-path:url(#SVGID_1259_);}
	.st611{clip-path:url(#SVGID_1263_);}
	.st612{clip-path:url(#SVGID_1269_);}
	.st613{clip-path:url(#SVGID_1273_);}
	.st614{clip-path:url(#SVGID_1277_);}
	.st615{clip-path:url(#SVGID_1291_);}
	.st616{clip-path:url(#SVGID_1299_);}
	.st617{clip-path:url(#SVGID_1307_);}
	.st618{clip-path:url(#SVGID_1311_);}
	.st619{clip-path:url(#SVGID_1317_);}
	.st620{clip-path:url(#SVGID_1323_);}
	.st621{clip-path:url(#SVGID_1337_);}
	.st622{clip-path:url(#SVGID_1347_);}
	.st623{clip-path:url(#SVGID_1351_);}
	.st624{clip-path:url(#SVGID_1357_);}
	.st625{fill:#577434;}
	.st626{fill:#405B2A;}
	.st627{fill:#7E694E;}
	.st628{fill:#A0B13A;}
	.st629{clip-path:url(#SVGID_1363_);}
	.st630{clip-path:url(#SVGID_1375_);}
	.st631{clip-path:url(#SVGID_1383_);}
	.st632{clip-path:url(#SVGID_1389_);}
	.st633{clip-path:url(#SVGID_1397_);}
	.st634{fill:#69553E;}
	.st635{fill:#E5DDED;}
	.st636{clip-path:url(#SVGID_1401_);}
	.st637{clip-path:url(#SVGID_1405_);}
	.st638{fill:#C9C9BD;}
	.st639{fill:#A6A190;}
	.st640{clip-path:url(#SVGID_1413_);}
	.st641{clip-path:url(#SVGID_1421_);}
	.st642{fill:#374A21;}
	.st643{clip-path:url(#SVGID_1425_);}
	.st644{clip-path:url(#SVGID_1431_);}
	.st645{clip-path:url(#SVGID_1443_);}
	.st646{clip-path:url(#SVGID_1451_);}
	.st647{clip-path:url(#SVGID_1461_);}
	.st648{clip-path:url(#SVGID_1469_);}
	.st649{clip-path:url(#SVGID_1473_);}
	.st650{clip-path:url(#SVGID_1481_);}
	.st651{clip-path:url(#SVGID_1485_);}
	.st652{clip-path:url(#SVGID_1493_);}
	.st653{clip-path:url(#SVGID_1497_);}
	.st654{clip-path:url(#SVGID_1505_);}
	.st655{clip-path:url(#SVGID_1511_);}
	.st656{clip-path:url(#SVGID_1517_);}
	.st657{clip-path:url(#SVGID_1523_);}
	.st658{clip-path:url(#SVGID_1533_);}
	.st659{fill:#E58342;}
	.st660{clip-path:url(#SVGID_1537_);}
	.st661{clip-path:url(#SVGID_1543_);}
	.st662{clip-path:url(#SVGID_1547_);}
	.st663{clip-path:url(#SVGID_1551_);}
	.st664{clip-path:url(#SVGID_1555_);}
	.st665{clip-path:url(#SVGID_1559_);}
	.st666{clip-path:url(#SVGID_1565_);}
	.st667{clip-path:url(#SVGID_1569_);}
	.st668{clip-path:url(#SVGID_1577_);}
	.st669{clip-path:url(#SVGID_1587_);}
	.st670{clip-path:url(#SVGID_1595_);}
	.st671{clip-path:url(#SVGID_1599_);}
	.st672{clip-path:url(#SVGID_1607_);}
	.st673{clip-path:url(#SVGID_1611_);}
	.st674{clip-path:url(#SVGID_1617_);}
	.st675{clip-path:url(#SVGID_1625_);}
	.st676{clip-path:url(#SVGID_1633_);}
	.st677{clip-path:url(#SVGID_1645_);}
	.st678{fill:#662510;}
	.st679{fill:#C36B34;}
	.st680{clip-path:url(#SVGID_1653_);}
	.st681{clip-path:url(#SVGID_1657_);}
	.st682{clip-path:url(#SVGID_1665_);}
	.st683{clip-path:url(#SVGID_1671_);}
	.st684{clip-path:url(#SVGID_1677_);}
	.st685{clip-path:url(#SVGID_1683_);}
	.st686{clip-path:url(#SVGID_1689_);}
	.st687{clip-path:url(#SVGID_1695_);}
	.st688{clip-path:url(#SVGID_1701_);}
	.st689{clip-path:url(#SVGID_1707_);}
	.st690{clip-path:url(#SVGID_1715_);}
	.st691{clip-path:url(#SVGID_1725_);}
	.st692{clip-path:url(#SVGID_1733_);}
	.st693{fill:#561E0F;}
	.st694{clip-path:url(#SVGID_1737_);}
	.st695{clip-path:url(#SVGID_1741_);}
	.st696{clip-path:url(#SVGID_1751_);}
	.st697{clip-path:url(#SVGID_1755_);}
	.st698{fill:#908775;}
	.st699{clip-path:url(#SVGID_1759_);}
	.st700{clip-path:url(#SVGID_1765_);}
	.st701{clip-path:url(#SVGID_1773_);}
	.st702{clip-path:url(#SVGID_1779_);}
	.st703{clip-path:url(#SVGID_1789_);}
	.st704{clip-path:url(#SVGID_1795_);}
	.st705{clip-path:url(#SVGID_1799_);}
	.st706{clip-path:url(#SVGID_1805_);}
	.st707{clip-path:url(#SVGID_1813_);}
	.st708{clip-path:url(#SVGID_1817_);}
	.st709{clip-path:url(#SVGID_1821_);}
	.st710{clip-path:url(#SVGID_1829_);}
	.st711{clip-path:url(#SVGID_1833_);}
	.st712{clip-path:url(#SVGID_1841_);}
	.st713{fill:#66C0D6;}
	.st714{fill:#0A82C0;}
	.st715{clip-path:url(#SVGID_1849_);}
	.st716{clip-path:url(#SVGID_1853_);}
	.st717{clip-path:url(#SVGID_1857_);}
	.st718{clip-path:url(#SVGID_1861_);}
	.st719{clip-path:url(#SVGID_1865_);}
	.st720{clip-path:url(#SVGID_1869_);}
	.st721{clip-path:url(#SVGID_1873_);}
	.st722{clip-path:url(#SVGID_1877_);}
	.st723{clip-path:url(#SVGID_1881_);}
	.st724{fill:#FDC787;}
	.st725{clip-path:url(#SVGID_1885_);}
	.st726{clip-path:url(#SVGID_1889_);}
	.st727{clip-path:url(#SVGID_1893_);}
	.st728{clip-path:url(#SVGID_1897_);}
	.st729{clip-path:url(#SVGID_1905_);}
	.st730{clip-path:url(#SVGID_1911_);}
	.st731{clip-path:url(#SVGID_1915_);}
	.st732{fill:#717071;}
	.st733{clip-path:url(#SVGID_1925_);}
	.st734{clip-path:url(#SVGID_1931_);}
	.st735{clip-path:url(#SVGID_1941_);}
	.st736{clip-path:url(#SVGID_1949_);}
	.st737{clip-path:url(#SVGID_1955_);}
	.st738{clip-path:url(#SVGID_1959_);}
	.st739{clip-path:url(#SVGID_1963_);}
	.st740{clip-path:url(#SVGID_1969_);}
	.st741{clip-path:url(#SVGID_1973_);}
	.st742{clip-path:url(#SVGID_1977_);}
	.st743{clip-path:url(#SVGID_1985_);}
	.st744{clip-path:url(#SVGID_1989_);}
	.st745{clip-path:url(#SVGID_1993_);}
	.st746{clip-path:url(#SVGID_1999_);}
	.st747{clip-path:url(#SVGID_2003_);}
	.st748{clip-path:url(#SVGID_2007_);}
	.st749{clip-path:url(#SVGID_2011_);}
	.st750{clip-path:url(#SVGID_2015_);}
	.st751{clip-path:url(#SVGID_2019_);}
	.st752{clip-path:url(#SVGID_2023_);}
	.st753{clip-path:url(#SVGID_2027_);}
	.st754{clip-path:url(#SVGID_2031_);}
	.st755{clip-path:url(#SVGID_2035_);}
	.st756{clip-path:url(#SVGID_2039_);}
	.st757{clip-path:url(#SVGID_2043_);}
	.st758{clip-path:url(#SVGID_2049_);}
	.st759{clip-path:url(#SVGID_2053_);}
	.st760{clip-path:url(#SVGID_2057_);}
	.st761{clip-path:url(#SVGID_2061_);}
	.st762{clip-path:url(#SVGID_2065_);}
	.st763{clip-path:url(#SVGID_2073_);}
	.st764{clip-path:url(#SVGID_2079_);}
	.st765{clip-path:url(#SVGID_2089_);}
	.st766{clip-path:url(#SVGID_2095_);}
	.st767{clip-path:url(#SVGID_2101_);}
	.st768{clip-path:url(#SVGID_2107_);}
	.st769{clip-path:url(#SVGID_2111_);}
	.st770{clip-path:url(#SVGID_2115_);}
	.st771{clip-path:url(#SVGID_2119_);}
	.st772{clip-path:url(#SVGID_2123_);}
	.st773{clip-path:url(#SVGID_2147_);}
	.st774{clip-path:url(#SVGID_2151_);}
	.st775{fill:#FDCC9A;}
	.st776{clip-path:url(#SVGID_2157_);}
	.st777{clip-path:url(#SVGID_2161_);}
	.st778{fill:#CC9469;}
	.st779{fill:#DE8D3C;}
	.st780{clip-path:url(#SVGID_2165_);}
	.st781{clip-path:url(#SVGID_2181_);}
	.st782{clip-path:url(#SVGID_2185_);}
	.st783{clip-path:url(#SVGID_2189_);}
	.st784{clip-path:url(#SVGID_2193_);}
	.st785{clip-path:url(#SVGID_2197_);}
	.st786{clip-path:url(#SVGID_2201_);}
	.st787{clip-path:url(#SVGID_2209_);}
	.st788{clip-path:url(#SVGID_2213_);}
	.st789{clip-path:url(#SVGID_2217_);}
	.st790{clip-path:url(#SVGID_2233_);}
	.st791{clip-path:url(#SVGID_2237_);}
	.st792{clip-path:url(#SVGID_2241_);}
	.st793{clip-path:url(#SVGID_2253_);}
	.st794{clip-path:url(#SVGID_2267_);}
	.st795{fill:#603A16;}
	.st796{clip-path:url(#SVGID_2275_);}
	.st797{clip-path:url(#SVGID_2279_);}
	.st798{clip-path:url(#SVGID_2283_);}
	.st799{clip-path:url(#SVGID_2287_);}
	.st800{clip-path:url(#SVGID_2291_);}
	.st801{clip-path:url(#SVGID_2295_);}
	.st802{clip-path:url(#SVGID_2299_);}
	.st803{clip-path:url(#SVGID_2303_);}
	.st804{clip-path:url(#SVGID_2307_);}
	.st805{clip-path:url(#SVGID_2311_);}
	.st806{fill:#48210E;}
	.st807{clip-path:url(#SVGID_2315_);}
	.st808{clip-path:url(#SVGID_2319_);}
	.st809{clip-path:url(#SVGID_2323_);}
	.st810{clip-path:url(#SVGID_2327_);}
	.st811{clip-path:url(#SVGID_2335_);}
	.st812{clip-path:url(#SVGID_2341_);}
	.st813{clip-path:url(#SVGID_2345_);}
	.st814{clip-path:url(#SVGID_2355_);}
	.st815{clip-path:url(#SVGID_2361_);}
	.st816{clip-path:url(#SVGID_2401_);}
	.st817{clip-path:url(#SVGID_2405_);}
	.st818{fill:#6B4432;}
	.st819{clip-path:url(#SVGID_2409_);}
	.st820{clip-path:url(#SVGID_2413_);}
	.st821{fill:#682A13;}
	.st822{clip-path:url(#SVGID_2417_);}
	.st823{clip-path:url(#SVGID_2423_);}
	.st824{clip-path:url(#SVGID_2427_);}
	.st825{clip-path:url(#SVGID_2431_);}
	.st826{fill:#A66C58;}
	.st827{clip-path:url(#SVGID_2437_);}
	.st828{clip-path:url(#SVGID_2441_);}
	.st829{clip-path:url(#SVGID_2445_);}
	.st830{clip-path:url(#SVGID_2449_);}
	.st831{clip-path:url(#SVGID_2453_);}
	.st832{clip-path:url(#SVGID_2457_);}
	.st833{clip-path:url(#SVGID_2461_);}
	.st834{clip-path:url(#SVGID_2471_);}
	.st835{clip-path:url(#SVGID_2475_);}
	.st836{clip-path:url(#SVGID_2483_);}
	.st837{clip-path:url(#SVGID_2487_);}
	.st838{fill:#BE5E28;}
	.st839{fill:#E7AF31;}
	.st840{clip-path:url(#SVGID_2501_);}
	.st841{clip-path:url(#SVGID_2505_);}
	.st842{clip-path:url(#SVGID_2509_);}
	.st843{clip-path:url(#SVGID_2513_);}
	.st844{clip-path:url(#SVGID_2517_);}
	.st845{clip-path:url(#SVGID_2521_);}
	.st846{clip-path:url(#SVGID_2525_);}
	.st847{clip-path:url(#SVGID_2531_);}
	.st848{clip-path:url(#SVGID_2537_);}
	.st849{clip-path:url(#SVGID_2541_);}
	.st850{clip-path:url(#SVGID_2547_);}
	.st851{clip-path:url(#SVGID_2551_);}
	.st852{clip-path:url(#SVGID_2557_);}
	.st853{clip-path:url(#SVGID_2561_);}
	.st854{clip-path:url(#SVGID_2565_);}
	.st855{clip-path:url(#SVGID_2573_);}
	.st856{clip-path:url(#SVGID_2577_);}
	.st857{fill:#B92025;}
	.st858{clip-path:url(#SVGID_2581_);}
	.st859{clip-path:url(#SVGID_2585_);}
	.st860{clip-path:url(#SVGID_2589_);}
	.st861{clip-path:url(#SVGID_2593_);}
	.st862{clip-path:url(#SVGID_2601_);}
	.st863{clip-path:url(#SVGID_2607_);}
	.st864{clip-path:url(#SVGID_2611_);}
	.st865{fill:#94221F;}
	.st866{clip-path:url(#SVGID_2621_);}
	.st867{clip-path:url(#SVGID_2625_);}
	.st868{clip-path:url(#SVGID_2633_);}
	.st869{clip-path:url(#SVGID_2639_);}
	.st870{clip-path:url(#SVGID_2643_);}
	.st871{clip-path:url(#SVGID_2651_);}
	.st872{clip-path:url(#SVGID_2655_);}
	.st873{clip-path:url(#SVGID_2663_);}
	.st874{clip-path:url(#SVGID_2669_);}
	.st875{clip-path:url(#SVGID_2673_);}
	.st876{clip-path:url(#SVGID_2701_);}
	.st877{clip-path:url(#SVGID_2705_);}
	.st878{clip-path:url(#SVGID_2709_);}
	.st879{fill:#C63C42;}
	.st880{clip-path:url(#SVGID_2715_);}
	.st881{clip-path:url(#SVGID_2719_);}
	.st882{fill:#832019;}
	.st883{fill:#9D4923;}
	.st884{fill:#4E210F;}
	.st885{clip-path:url(#SVGID_2723_);}
	.st886{clip-path:url(#SVGID_2727_);}
	.st887{clip-path:url(#SVGID_2731_);}
	.st888{clip-path:url(#SVGID_2735_);}
	.st889{clip-path:url(#SVGID_2739_);}
	.st890{fill:#E1E4F3;}
	.st891{clip-path:url(#SVGID_2743_);}
	.st892{clip-path:url(#SVGID_2747_);}
	.st893{clip-path:url(#SVGID_2751_);}
	.st894{clip-path:url(#SVGID_2759_);}
	.st895{clip-path:url(#SVGID_2765_);}
	.st896{clip-path:url(#SVGID_2769_);}
	.st897{fill:#627288;}
	.st898{clip-path:url(#SVGID_2779_);}
	.st899{clip-path:url(#SVGID_2787_);}
	.st900{clip-path:url(#SVGID_2793_);}
	.st901{clip-path:url(#SVGID_2799_);}
	.st902{clip-path:url(#SVGID_2803_);}
	.st903{clip-path:url(#SVGID_2811_);}
	.st904{clip-path:url(#SVGID_2815_);}
	.st905{clip-path:url(#SVGID_2819_);}
	.st906{clip-path:url(#SVGID_2825_);}
	.st907{clip-path:url(#SVGID_2829_);}
	.st908{clip-path:url(#SVGID_2833_);}
	.st909{clip-path:url(#SVGID_2839_);}
	.st910{clip-path:url(#SVGID_2843_);}
	.st911{clip-path:url(#SVGID_2847_);}
	.st912{clip-path:url(#SVGID_2853_);}
	.st913{clip-path:url(#SVGID_2857_);}
	.st914{clip-path:url(#SVGID_2861_);}
	.st915{clip-path:url(#SVGID_2865_);}
	.st916{clip-path:url(#SVGID_2869_);}
	.st917{clip-path:url(#SVGID_2873_);}
	.st918{clip-path:url(#SVGID_2877_);}
	.st919{clip-path:url(#SVGID_2881_);}
	.st920{clip-path:url(#SVGID_2885_);}
	.st921{clip-path:url(#SVGID_2889_);}
	.st922{clip-path:url(#SVGID_2893_);}
	.st923{clip-path:url(#SVGID_2897_);}
	.st924{clip-path:url(#SVGID_2901_);}
	.st925{clip-path:url(#SVGID_2907_);}
	.st926{clip-path:url(#SVGID_2913_);}
	.st927{clip-path:url(#SVGID_2917_);}
	.st928{clip-path:url(#SVGID_2921_);}
	.st929{clip-path:url(#SVGID_2925_);}
	.st930{clip-path:url(#SVGID_2929_);}
	.st931{clip-path:url(#SVGID_2935_);}
	.st932{clip-path:url(#SVGID_2941_);}
	.st933{clip-path:url(#SVGID_2951_);}
	.st934{clip-path:url(#SVGID_2957_);}
	.st935{clip-path:url(#SVGID_2963_);}
	.st936{clip-path:url(#SVGID_2969_);}
	.st937{clip-path:url(#SVGID_2973_);}
	.st938{clip-path:url(#SVGID_2977_);}
	.st939{clip-path:url(#SVGID_2981_);}
	.st940{clip-path:url(#SVGID_2985_);}
	.st941{clip-path:url(#SVGID_3027_);}
	.st942{clip-path:url(#SVGID_3031_);}
	.st943{fill:#E6E4F2;}
	.st944{clip-path:url(#SVGID_3037_);}
	.st945{clip-path:url(#SVGID_3041_);}
	.st946{fill:#5E3814;}
	.st947{fill:#856446;}
	.st948{fill:#7B8EA9;}
	.st949{fill:#3A2310;}
	.st950{fill:url(#SVGID_3044_);}
	.st951{fill:url(#SVGID_3045_);}
	.st952{fill:#EE7623;}
	.st953{fill:#E31D93;}
	.st954{fill:#502C1E;}
	.st955{fill-rule:evenodd;clip-rule:evenodd;fill:#EE7623;}
	.st956{fill-rule:evenodd;clip-rule:evenodd;fill:#E31D93;}
	.st957{fill:url(#SVGID_3046_);}
	.st958{fill:#40403F;}
	.st959{display:none;fill:none;stroke:#323131;stroke-linecap:round;stroke-linejoin:round;stroke-miterlimit:10;}
	.st960{fill:#281E16;}
	.st961{fill:#6D6D6D;}
	.st962{opacity:0.2;fill:#545554;}
	.st963{fill:#F4F6F6;}
	.st964{fill:none;stroke:#5ECBEF;stroke-width:0.6668;stroke-miterlimit:10;}
	.st965{fill:none;stroke:#5ECBEF;stroke-width:1.2503;stroke-miterlimit:10;}
	.st966{fill:none;stroke:#5ECBEF;stroke-width:2.0004;stroke-miterlimit:10;}
	.st967{opacity:0.5;fill:#898989;}
	.st968{fill:#B7B7B7;}
	.st969{opacity:0.34;fill:#525453;}
	.st970{fill:#987152;}
	.st971{fill:#C1C1C2;}
	.st972{clip-path:url(#SVGID_3048_);fill:#FFFFFF;}
	.st973{clip-path:url(#SVGID_3048_);}
	.st974{fill:#61C9EE;}
	.st975{opacity:0.3;clip-path:url(#SVGID_3048_);fill:#525453;}
	.st976{fill:#876B57;}
	.st977{fill:#BFE5EA;}
	.st978{fill:#5DC6E7;}
	.st979{fill:none;stroke:#85A2A9;stroke-width:0.5;stroke-linecap:round;stroke-miterlimit:10;stroke-dasharray:2;}
	.st980{fill:#B88869;}
	.st981{fill:none;stroke:#FFFFFF;stroke-miterlimit:10;}
	.st982{clip-path:url(#SVGID_3050_);fill:#FFFFFF;}
	.st983{clip-path:url(#SVGID_3050_);}
	.st984{opacity:0.3;clip-path:url(#SVGID_3050_);fill:#525453;}
	.st985{opacity:0.34;fill:#525353;}
	.st986{fill:none;stroke:#FFFFFF;stroke-width:2;stroke-miterlimit:10;}
	.st987{fill:#C93850;}
	.st988{opacity:0.33;fill:#9B212A;}
	.st989{fill:#4D1624;}
	.st990{opacity:0.45;fill:#831524;}
	.st991{opacity:0.65;fill:#9B212A;}
	.st992{fill:#B33356;}
	.st993{fill:url(#SVGID_3051_);}
	.st994{fill:none;stroke:#313131;stroke-width:3;stroke-linecap:round;stroke-miterlimit:10;}
	.st995{fill:none;stroke:#313131;stroke-width:4;stroke-linecap:round;stroke-miterlimit:10;}
	.st996{fill:none;stroke:#FCB923;stroke-width:4;stroke-miterlimit:10;}
	.st997{fill:none;stroke:#FCB923;stroke-width:4;stroke-linecap:round;stroke-miterlimit:10;}
	.st998{fill:url(#SVGID_3052_);}
	.st999{fill:url(#SVGID_3053_);}
	.st1000{fill:url(#SVGID_3054_);}
	.st1001{clip-path:url(#SVGID_3056_);}
	.st1002{clip-path:url(#SVGID_3058_);}
	.st1003{fill:#628FCA;}
	.st1004{fill:#231F20;}
	.st1005{fill:#5DB447;}
	.st1006{fill:#7AA3D6;}
	.st1007{fill:url(#SVGID_3061_);}
	.st1008{fill:#7A7A7B;}
	.st1009{fill:url(#SVGID_3062_);}
	.st1010{fill:#D5E8F8;}
	.st1011{fill:url(#SVGID_3063_);}
	.st1012{fill:url(#SVGID_3064_);}
	.st1013{fill:#F6F7F7;}
	.st1014{fill:url(#SVGID_3065_);}
	.st1015{opacity:0.35;fill:#997152;}
	.st1016{opacity:0.69;fill:#997152;}
	.st1017{fill:url(#SVGID_3072_);}
	.st1018{fill:url(#SVGID_3073_);}
	.st1019{fill:url(#SVGID_3074_);}
	.st1020{fill:url(#SVGID_3075_);}
	.st1021{fill:url(#SVGID_3076_);}
	.st1022{fill:#5A7EBF;}
	.st1023{fill:#B5C3C2;}
	.st1024{fill:#7196CC;}
	.st1025{fill:#7EA2D5;}
	.st1026{fill:#98ABAA;}
	.st1027{fill:#2E50A1;}
	.st1028{fill:#4B70B7;}
	.st1029{fill:#263A7B;}
	.st1030{fill:#4E81C2;}
</style>
<g id="Layer_2">
</g>
<g id="Layer_1">
	<g>
		<path class="st8" d="M97.21,61.08c-0.8-4.2-2.15-8.22-3.99-12.09c-1.33-2.79-2.9-5.44-4.73-7.95c-1.25-1.71-2.57-3.38-4.01-4.95
			c-1.18-1.29-2.43-2.52-3.73-3.71c-1.73-1.58-3.57-3.04-5.5-4.38c-3.16-2.2-6.51-4.07-10.06-5.59c-2.84-1.22-5.76-2.24-8.77-3.02
			c-3.02-0.78-6.08-1.33-9.19-1.64c-1.94-0.19-3.89-0.32-5.85-0.32c-0.68,0-0.83,0.15-0.84,0.8c-0.02,1.95-0.04,3.89-0.06,5.84
			c-0.02,1.91-0.04,3.82-0.06,5.74c0,0.15-0.01,0.31,0.01,0.46c0.02,0.23,0.17,0.37,0.4,0.41c0.15,0.03,0.31,0.02,0.47,0.02
			c1.1,0.03,2.19,0.03,3.29,0.12c1.49,0.13,2.98,0.31,4.45,0.56c4.11,0.72,8.04,1.99,11.77,3.81c3.29,1.61,6.32,3.58,9.09,5.94
			c2.1,1.8,4,3.77,5.71,5.92c1.91,2.41,3.49,5.02,4.77,7.79c0.56,1.22,1.07,2.46,1.5,3.73c0.62,1.87,1.11,3.77,1.42,5.71
			c0.29,1.79,0.45,3.59,0.49,5.4c0.03,1.42-0.12,2.84-0.21,4.25c-0.11,1.78-0.42,3.52-0.83,5.25c-1.01,4.23-2.74,8.15-5.19,11.78
			c-2.29,3.39-5.05,6.38-8.2,9.03c-2.66,2.24-5.59,4.1-8.74,5.62c-2.52,1.22-5.15,2.16-7.88,2.85c-2.33,0.59-4.69,1.02-7.08,1.27
			c-1.59,0.16-3.2,0.23-4.8,0.28c-0.77,0.02-0.91,0.16-0.96,0.89c0,0.05,0,0.1-0.01,0.15c-0.02,1.74-0.06,3.48-0.07,5.22
			c-0.01,2.06-0.02,4.13,0.04,6.19c0.02,0.62,0.09,0.71,0.72,0.72c0.96,0.01,1.92-0.02,2.88-0.04c1.22-0.03,2.44-0.1,3.65-0.21
			c2.38-0.23,4.73-0.62,7.06-1.13c4.34-0.95,8.51-2.35,12.53-4.22c2.79-1.3,5.45-2.82,7.99-4.53c2.56-1.72,4.95-3.63,7.15-5.76
			c0.75-0.73,1.47-1.49,2.19-2.25c1.67-1.77,3.22-3.65,4.63-5.62c1.84-2.56,3.42-5.26,4.75-8.11c1.11-2.37,2.03-4.82,2.76-7.33
			c0.55-1.9,0.96-3.84,1.28-5.79c0.33-1.97,0.51-3.96,0.62-5.94c0.09-1.69,0.01-3.38-0.1-5.07C97.86,65.14,97.59,63.1,97.21,61.08z"
			/>
		<path class="st8" d="M43.93,55.52c3.73,0.71,6.82,2.48,9.13,5.41c3,3.81,3.67,8.06,2.14,12.61c-0.81,2.4-2.29,4.39-4.3,6
			c-2.75,2.21-5.91,3.4-9.5,3.48c-0.21,0-0.41,0.01-0.62,0.05c-0.34,0.07-0.52,0.27-0.55,0.59c-0.03,0.27-0.04,0.54-0.04,0.81
			c-0.02,3.32-0.07,6.63-0.01,9.95c0.01,0.42-0.01,0.85,0,1.27c0.01,0.44,0.19,0.6,0.65,0.58c0.17-0.01,0.35-0.04,0.52-0.03
			c1.82,0.05,3.62-0.15,5.41-0.48c3.29-0.6,6.38-1.72,9.28-3.33c2.49-1.39,4.74-3.09,6.72-5.12c0.96-0.99,1.85-2.02,2.65-3.14
			c1.9-2.65,3.23-5.55,4.07-8.68c0.48-1.81,0.74-3.64,0.82-5.51c0.06-1.51-0.06-3.01-0.27-4.5c-0.48-3.28-1.57-6.37-3.26-9.25
			c-2.14-3.63-5.01-6.61-8.52-9.02c-2.72-1.87-5.7-3.2-8.89-4.09c-2.35-0.66-4.76-1.01-7.21-1.1c-0.96-0.04-1.92-0.02-2.88,0.03
			c-1.31,0.07-2.6,0.21-3.89,0.43c-2.2,0.38-4.33,1.02-6.39,1.87c-4.55,1.87-8.32,4.71-11.43,8.41c-2.33,2.78-3.92,5.94-4.92,9.38
			c-0.64,2.19-0.98,4.42-0.97,6.7c0,0.8,0.03,1.59,0.12,2.38c0.06,0.5,0.03,1.01,0.16,1.51c0.1,0.4,0.21,0.5,0.64,0.53
			c0.14,0.01,0.28,0,0.42,0.01c2.08,0.02,4.15,0.04,6.23,0.06c2.15,0.02,4.29,0.04,6.44,0.06c0.16,0,0.32,0.01,0.47-0.01
			c0.27-0.04,0.39-0.19,0.37-0.46c-0.01-0.1-0.05-0.2-0.07-0.3c-0.33-1.37-0.5-2.75-0.44-4.16c0.06-1.33,0.3-2.62,0.76-3.87
			c0.84-2.28,2.25-4.18,4.13-5.77c2.92-2.47,6.35-3.58,10.18-3.61C41.99,55.21,42.97,55.33,43.93,55.52z"/>
		<path class="st8" d="M23.98,31.25c1.94,1.05,4.02,1.28,6.18,0.84c1.7-0.35,3.15-1.15,4.32-2.41c1.09-1.18,1.74-2.55,1.94-4.13
			c0.2-1.56-0.03-3.05-0.81-4.42c-1.59-2.81-4.19-4.02-7.25-4.27c-1.56,0.05-2.93,0.34-4.19,1.01c-2.79,1.48-4.63,4.15-4.2,7.64
			C20.28,28.06,21.67,29.99,23.98,31.25z"/>
		<polygon class="st8" points="136.35,104.89 131.5,112.7 126.66,104.89 122.2,104.89 129.22,116.19 129.22,122.47 133.42,122.47 
			133.42,116.24 140.47,104.89 		"/>
		<path class="st8" d="M147.02,108.76c-4.43,0-7.67,2.89-7.67,6.96c0,4.07,3.24,6.96,7.67,6.96c4.43,0,7.64-2.89,7.64-6.96
			C154.67,111.65,151.45,108.76,147.02,108.76z M147.02,119.46c-2.02,0-3.58-1.41-3.58-3.74c0-2.34,1.55-3.74,3.58-3.74
			c2.02,0,3.55,1.41,3.55,3.74C150.57,118.05,149.04,119.46,147.02,119.46z"/>
		<path class="st8" d="M167.36,115.64c0,2.49-1.35,3.64-3.21,3.64c-1.79,0-2.82-1-2.82-3.27v-7.06h-4.04v7.64
			c0,4.17,2.46,6.08,5.96,6.08c1.71,0,3.26-0.63,4.33-1.81v1.61h3.83v-13.51h-4.04V115.64z"/>
		<path class="st8" d="M179.02,110.74v-1.78h-3.86v13.51h4.04v-6.38c0-2.59,1.48-3.77,3.71-3.77c0.31,0,0.57,0.02,0.91,0.05v-3.62
			C181.66,108.76,180,109.44,179.02,110.74z"/>
		<path class="st8" d="M199.64,104.89l-8.08,17.58h4.3l1.61-3.77h8.42l1.61,3.77h4.4l-8.11-17.58H199.64z M198.81,115.61l2.88-6.73
			l2.88,6.73H198.81z"/>
		<rect x="213.5" y="103.84" class="st8" width="4.04" height="18.64"/>
		<rect x="221.3" y="103.84" class="st8" width="4.04" height="18.64"/>
		<rect x="228.58" y="113.83" class="st8" width="7.33" height="3.14"/>
		<path class="st8" d="M241.12,102.7c-1.5,0-2.51,0.96-2.51,2.19s1.01,2.18,2.51,2.18c1.5,0,2.51-0.95,2.51-2.26
			C243.63,103.61,242.62,102.7,241.12,102.7z"/>
		<rect x="239.1" y="108.96" class="st8" width="4.04" height="13.51"/>
		<path class="st8" d="M255.37,108.76c-1.89,0-3.52,0.63-4.61,1.78v-1.58h-3.86v13.51h4.04v-6.68c0-2.49,1.4-3.64,3.34-3.64
			c1.79,0,2.82,1,2.82,3.19v7.13h4.04v-7.74C261.15,110.62,258.66,108.76,255.37,108.76z"/>
		<rect x="264.28" y="113.83" class="st8" width="7.33" height="3.14"/>
		<path class="st8" d="M273.89,108.15h6.37v8.36c0,1.93-0.88,2.91-2.56,2.91c-1.3,0-2.38-0.65-3.37-1.93l-2.33,2.71
			c1.32,1.66,3.47,2.56,5.91,2.56c4.28,0,6.53-2.13,6.53-6.48v-11.4h-10.54V108.15z"/>
		<path class="st8" d="M298.3,115.64c0,2.49-1.35,3.64-3.21,3.64c-1.79,0-2.82-1-2.82-3.27v-7.06h-4.04v7.64
			c0,4.17,2.46,6.08,5.96,6.08c1.71,0,3.26-0.63,4.33-1.81v1.61h3.83v-13.51h-4.04V115.64z"/>
		<path class="st8" d="M311.72,108.76c-2.23,0-4.48,0.58-6.01,1.63l1.45,2.74c1.01-0.78,2.54-1.26,4.02-1.26
			c2.18,0,3.21,0.98,3.21,2.66h-3.21c-4.25,0-5.99,1.66-5.99,4.04c0,2.33,1.94,4.09,5.21,4.09c2.05,0,3.5-0.65,4.25-1.88v1.68h3.78
			v-7.71C318.43,110.67,315.97,108.76,311.72,108.76z M314.39,118.2c-0.47,1.23-1.63,1.83-2.98,1.83c-1.42,0-2.28-0.65-2.28-1.63
			c0-0.9,0.6-1.58,2.49-1.58h2.77V118.2z"/>
		<path class="st8" d="M330.55,108.76c-1.89,0-3.52,0.63-4.61,1.78v-1.58h-3.86v13.51h4.04v-6.68c0-2.49,1.4-3.64,3.34-3.64
			c1.79,0,2.82,1,2.82,3.19v7.13h4.04v-7.74C336.33,110.62,333.84,108.76,330.55,108.76z"/>
		<path class="st8" d="M356.38,104.59c-5.73,0-9.92,3.87-9.92,9.09c0,5.22,4.2,9.09,9.92,9.09c5.7,0,9.92-3.84,9.92-9.09
			C366.31,108.43,362.08,104.59,356.38,104.59z M356.38,119.31c-3.24,0-5.67-2.29-5.67-5.63c0-3.34,2.44-5.63,5.67-5.63
			c3.24,0,5.67,2.29,5.67,5.63C362.06,117.02,359.62,119.31,356.38,119.31z"/>
		<path class="st8" d="M377.65,108.76c-1.89,0-3.52,0.63-4.61,1.78v-1.58h-3.86v13.51h4.04v-6.68c0-2.49,1.4-3.64,3.34-3.64
			c1.79,0,2.82,1,2.82,3.19v7.13h4.04v-7.74C383.43,110.62,380.94,108.76,377.65,108.76z"/>
		<rect x="387.08" y="103.84" class="st8" width="4.04" height="18.64"/>
		<rect x="394.88" y="108.96" class="st8" width="4.04" height="13.51"/>
		<path class="st8" d="M396.9,102.7c-1.5,0-2.51,0.96-2.51,2.19s1.01,2.18,2.51,2.18c1.5,0,2.51-0.95,2.51-2.26
			C399.42,103.61,398.41,102.7,396.9,102.7z"/>
		<path class="st8" d="M411.15,108.76c-1.89,0-3.52,0.63-4.61,1.78v-1.58h-3.86v13.51h4.04v-6.68c0-2.49,1.4-3.64,3.34-3.64
			c1.79,0,2.82,1,2.82,3.19v7.13h4.04v-7.74C416.93,110.62,414.44,108.76,411.15,108.76z"/>
		<path class="st8" d="M427.14,108.76c-4.25,0-7.44,2.91-7.44,6.96c0,4.02,3.14,6.96,7.95,6.96c2.51,0,4.46-0.75,5.75-2.19
			l-2.15-2.26c-0.96,0.88-2.02,1.31-3.5,1.31c-2.12,0-3.6-1.03-3.99-2.71h10.54c0.03-0.33,0.08-0.75,0.08-1.05
			C434.39,111.42,431.23,108.76,427.14,108.76z M423.72,114.53c0.28-1.73,1.61-2.81,3.45-2.81c1.81,0,3.14,1.11,3.42,2.81H423.72z"
			/>
		<polygon class="st8" points="463.88,117.35 459.73,104.89 455.84,104.89 451.57,117.25 447.47,104.89 443.12,104.89 
			449.08,122.47 453.56,122.47 457.68,110.57 461.67,122.47 466.18,122.47 472.11,104.89 468.1,104.89 		"/>
		<path class="st8" d="M478.75,108.76c-2.23,0-4.48,0.58-6.01,1.63l1.45,2.74c1.01-0.78,2.54-1.26,4.02-1.26
			c2.18,0,3.21,0.98,3.21,2.66h-3.21c-4.25,0-5.99,1.66-5.99,4.04c0,2.33,1.94,4.09,5.21,4.09c2.05,0,3.5-0.65,4.25-1.88v1.68h3.78
			v-7.71C485.46,110.67,483,108.76,478.75,108.76z M481.41,118.2c-0.47,1.23-1.63,1.83-2.98,1.83c-1.42,0-2.28-0.65-2.28-1.63
			c0-0.9,0.6-1.58,2.49-1.58h2.77V118.2z"/>
		<rect x="489.11" y="103.84" class="st8" width="4.04" height="18.64"/>
		<rect x="496.91" y="103.84" class="st8" width="4.04" height="18.64"/>
		<path class="st8" d="M511.11,108.76c-4.25,0-7.44,2.91-7.44,6.96c0,4.02,3.14,6.96,7.95,6.96c2.51,0,4.46-0.75,5.75-2.19
			l-2.15-2.26c-0.96,0.88-2.02,1.31-3.5,1.31c-2.12,0-3.6-1.03-3.99-2.71h10.54c0.03-0.33,0.08-0.75,0.08-1.05
			C518.36,111.42,515.2,108.76,511.11,108.76z M507.69,114.53c0.28-1.73,1.61-2.81,3.45-2.81c1.81,0,3.14,1.11,3.42,2.81H507.69z"/>
		<path class="st8" d="M528.96,119.05c-0.44,0.33-1.04,0.5-1.63,0.5c-1.09,0-1.74-0.63-1.74-1.78v-5.5h3.47v-3.01h-3.47v-3.29h-4.04
			v3.29h-2.15v3.01h2.15v5.55c0,3.21,1.92,4.85,5.21,4.85c1.24,0,2.46-0.28,3.29-0.85L528.96,119.05z"/>
		<path class="st8" d="M161.05,29.74h-32.82v10.48h19.83v26.85c0,6.21-2.74,9.35-7.98,9.35c-4.03,0-7.42-2.1-10.48-6.21l-7.26,8.71
			c4.11,5.32,10.8,8.22,18.38,8.22c13.3,0,20.32-6.85,20.32-20.8V29.74z"/>
		<path class="st8" d="M204.83,81.02v5.16h11.93V42.8h-12.58v21.45c0,7.98-4.19,11.69-10,11.69c-5.56,0-8.79-3.23-8.79-10.48V42.8
			h-12.58v24.51c0,13.38,7.66,19.51,18.54,19.51C196.69,86.82,201.52,84.81,204.83,81.02z"/>
		<path class="st8" d="M225.63,73.68c0,7.5,6.05,13.14,16.21,13.14c6.37,0,10.88-2.1,13.22-6.05v5.4h11.77V61.43
			c0-13.14-7.66-19.27-20.88-19.27c-6.93,0-13.95,1.85-18.71,5.24l4.52,8.79c3.14-2.5,7.9-4.03,12.5-4.03c6.77,0,10,3.14,10,8.55
			h-10C231.03,60.7,225.63,66.02,225.63,73.68z M254.25,68.04v4.43c-1.45,3.95-5.08,5.89-9.27,5.89c-4.43,0-7.1-2.1-7.1-5.24
			c0-2.9,1.85-5.08,7.74-5.08H254.25z"/>
		<path class="st8" d="M290.77,64.73c0-7.98,4.35-11.69,10.4-11.69c5.56,0,8.79,3.22,8.79,10.24v22.9h12.58V61.34
			c0-13.22-7.74-19.19-17.98-19.19c-5.89,0-10.97,2.02-14.35,5.72V42.8h-12.01v43.38h12.58V64.73z"/>
		<path class="st8" d="M362.53,39.9c5.64,0,10.4,2.26,14.19,6.61l8.39-7.74c-5.32-6.45-13.46-10-23.22-10
			c-17.58,0-30.64,12.17-30.64,29.19s13.06,29.19,30.56,29.19c9.84,0,17.98-3.55,23.3-10.08l-8.39-7.74
			c-3.79,4.43-8.55,6.69-14.19,6.69c-10.56,0-18.06-7.42-18.06-18.06S351.97,39.9,362.53,39.9z"/>
		<path class="st8" d="M431.06,86.18V61.43c0-13.14-7.66-19.27-20.88-19.27c-6.93,0-13.95,1.85-18.71,5.24l4.52,8.79
			c3.14-2.5,7.9-4.03,12.5-4.03c6.77,0,10,3.14,10,8.55h-10c-13.22,0-18.62,5.32-18.62,12.98c0,7.5,6.05,13.14,16.21,13.14
			c6.37,0,10.88-2.1,13.22-6.05v5.4H431.06z M418.48,72.47c-1.45,3.95-5.08,5.89-9.27,5.89c-4.43,0-7.1-2.1-7.1-5.24
			c0-2.9,1.85-5.08,7.74-5.08h8.63V72.47z"/>
		<path class="st8" d="M457.5,77.31c-5.32,0-11.21-1.69-15.08-4.19l-4.19,9.03c4.03,2.66,11.45,4.68,18.79,4.68
			c12.98,0,20.48-5.72,20.48-13.79c0-17.09-26.2-9.92-26.2-17.33c0-2.26,2.42-4.03,8.06-4.03c3.95,0,8.22,0.81,12.5,3.23l4.19-8.95
			c-4.11-2.42-10.72-3.79-16.69-3.79c-12.66,0-20.08,5.8-20.08,14.03c0,17.33,26.2,10.08,26.2,17.17
			C465.48,75.78,463.31,77.31,457.5,77.31z"/>
		<path class="st8" d="M497.81,64.73c0-7.98,4.35-11.69,10.4-11.69c5.56,0,8.79,3.22,8.79,10.24v22.9h12.58V61.34
			c0-13.22-7.74-19.19-17.98-19.19c-5.56,0-10.4,1.77-13.79,5.16V26.35h-12.58v59.83h12.58V64.73z"/>
	</g>
</g>
</svg>
